<svg width="133" viewBox="0 0 1335 407" fill="none" xmlns="http://www.w3.org/2000/svg">
<g clip-path="url(#clip0_2087_21)">
<path d="M413.26 218.968L387.329 219.029C379.309 219.029 371.409 220.657 363.811 223.31C355.127 226.326 346.986 230.487 339.328 235.552C331.368 240.859 324.011 247.071 317.377 253.945C311.106 260.519 305.618 267.816 301.397 275.896L268.652 338.554C265.395 344.825 262.561 351.881 261.958 358.997C261.536 363.761 261.898 368.767 264.009 373.109C265.938 376.968 268.833 379.802 272.572 381.913C277.456 384.687 283.487 385.471 289.034 385.471H414.345C418.024 385.471 421.702 385.109 425.321 384.446H425.501L426.044 384.325C430.024 383.602 433.944 382.516 437.803 381.189C446.487 378.174 454.628 374.013 462.287 368.947C466.267 366.294 470.066 363.399 473.744 360.384L474.106 360.083C477.664 357.128 481.041 353.931 484.237 350.615C490.509 344.041 495.996 336.744 500.218 328.664L531.455 268.841L532.962 266.006C536.219 259.735 539.053 252.679 539.656 245.563C540.078 240.799 539.716 235.794 537.606 231.452C535.676 227.592 532.781 224.758 529.043 222.647C524.942 220.295 520.118 219.39 515.474 219.149L514.63 219.089H514.449H514.268C513.726 219.089 513.183 219.089 512.58 219.089H413.26V218.968ZM605.99 328.724L600.985 338.493C599.658 341.086 598.512 343.981 598.271 346.876C598.151 348.202 598.09 349.891 598.693 351.157C599.115 352.002 599.718 352.544 600.563 353.027C602.191 353.931 604.603 354.112 606.412 354.112H669.067C672.444 354.112 675.761 353.389 678.897 352.303C682.817 350.916 686.495 349.107 689.932 346.815C693.611 344.403 696.928 341.629 699.883 338.433C701.45 336.805 702.898 335.056 704.224 333.247L706.697 328.603L605.99 328.724ZM527.535 322.814H573.245C572.944 322.633 572.702 322.512 572.401 322.332C564.923 318.05 558.953 312.08 555.154 304.3C551.234 296.34 550.209 287.535 550.993 278.791C551.053 278.429 551.053 278.007 551.114 277.645L550.571 278.731L527.535 322.814ZM292.653 249.724C295.487 245.985 298.562 242.427 301.819 239.05C309.538 230.969 318.101 223.732 327.448 217.581C336.614 211.491 346.383 206.545 356.755 202.927C366.585 199.49 376.897 197.5 387.329 197.5H391.792H512.58C517.525 197.5 523.736 198.766 528.741 199.429C532.54 200.455 536.279 201.902 539.716 203.892C547.194 208.174 553.164 214.144 556.963 221.923C560.883 229.884 561.908 238.688 561.124 247.432C561.064 247.794 561.064 248.216 561.003 248.578L587.718 197.5H674.676L641.81 260.217C640.544 262.81 639.338 265.826 639.036 268.66C638.916 270.107 638.916 271.735 639.519 273.062C639.881 273.906 640.484 274.449 641.328 274.871C642.956 275.776 645.368 275.957 647.177 275.957H734.256L775.202 197.439H886.884V218.968H876.15C872.773 218.968 869.456 219.692 866.32 220.778C862.401 222.165 858.722 223.974 855.285 226.265C851.606 228.677 848.29 231.452 845.335 234.648C842.5 237.603 840.028 240.919 838.038 244.477L789.072 338.493C783.946 348.383 777.252 357.309 769.594 365.389C761.814 373.531 753.191 380.707 743.784 386.798C734.678 392.708 724.909 397.653 714.717 401.331C704.888 404.889 694.636 406.94 684.143 406.94H558.652C549.244 406.94 539.777 405.251 531.515 400.547C524.037 396.266 518.067 390.296 514.268 382.516C510.349 374.556 509.323 365.751 510.107 357.007C510.228 355.439 510.469 353.871 510.71 352.364C507.394 356.947 503.715 361.349 499.795 365.45C495.996 369.37 492.077 373.109 487.855 376.606L487.493 376.908C483.212 380.466 478.81 383.783 474.166 386.858C465 392.949 455.231 397.894 444.859 401.512C440.939 402.899 436.959 404.045 432.919 404.889L432.798 405.01L428.999 405.673C424.175 406.518 419.23 407 414.345 407H289.034C279.627 407 270.159 405.312 261.898 400.608C254.42 396.326 248.45 390.356 244.651 382.576C240.731 374.616 239.706 365.812 240.49 357.067C240.792 354.052 241.274 351.097 241.998 348.202C237.957 354.354 233.254 360.143 228.128 365.45C220.349 373.531 211.725 380.767 202.318 386.858C193.212 392.768 183.443 397.713 173.191 401.392C163.362 404.95 153.11 407 142.617 407H48.7852C39.3778 407 29.9101 405.312 21.6486 400.608C14.1709 396.326 8.20086 390.356 4.40174 382.576C0.482005 374.616 -0.543156 365.812 0.24079 357.067C1.14534 347.117 4.70325 337.528 9.28632 328.664L28.5835 291.395H115.481L90.9976 338.674L90.9373 338.795C89.671 341.147 88.4649 343.921 88.2237 346.635C88.1031 348.022 88.1634 349.831 88.7664 351.157C89.1885 352.002 89.7916 352.544 90.6358 353.027C92.264 353.811 94.6762 353.992 96.4853 353.992H127.722C131.1 353.992 134.537 353.208 137.733 352.122C141.653 350.796 145.391 348.926 148.889 346.635C152.568 344.222 155.884 341.448 158.839 338.252C161.553 335.357 163.965 332.161 165.774 328.603L267.325 128.45H354.102L292.653 249.724Z" fill="#050102"/>
<path fill-rule="evenodd" clip-rule="evenodd" d="M732.867 406.94H1296.65L1334.94 315.517L815.061 315.396L798.116 347.72C792.99 357.61 786.296 366.535 778.638 374.616C770.858 382.757 762.235 389.934 752.828 396.025C746.496 400.186 739.862 403.864 732.867 406.94Z" fill="#050102"/>
<path fill-rule="evenodd" clip-rule="evenodd" d="M1261.37 381.973C1260.53 383.541 1260.04 385.049 1259.92 386.376C1259.8 387.702 1259.98 388.908 1260.47 389.934C1260.95 390.959 1261.67 391.803 1262.76 392.346C1263.78 392.949 1265.11 393.19 1266.74 393.19H1199.38C1196.24 393.19 1193.65 392.587 1191.54 391.381C1189.43 390.175 1187.92 388.607 1186.9 386.556C1185.93 384.566 1185.51 382.154 1185.81 379.44C1186.05 376.727 1187.02 373.772 1188.64 370.696L1194.55 359.419C1196.12 356.344 1198.23 353.389 1200.83 350.675C1203.42 347.961 1206.25 345.609 1209.39 343.619C1212.46 341.629 1215.72 340.001 1219.04 338.855C1222.35 337.649 1225.61 337.046 1228.75 337.046H1262.4C1265.53 337.046 1268.12 337.649 1270.24 338.855C1272.35 340.001 1273.85 341.629 1274.82 343.619C1275.78 345.609 1276.14 347.961 1275.9 350.675C1275.66 353.389 1274.76 356.283 1273.19 359.419L1267.28 370.696H1216.75L1222.66 359.419H1250.7C1251.48 357.911 1251.96 356.464 1252.08 355.077C1252.2 353.69 1252.08 352.484 1251.6 351.519C1251.12 350.494 1250.34 349.71 1249.25 349.107C1248.16 348.504 1246.84 348.263 1245.33 348.263H1234.05C1232.55 348.263 1230.92 348.564 1229.23 349.107C1227.54 349.71 1225.97 350.494 1224.4 351.519C1222.9 352.544 1221.45 353.69 1220.12 355.077C1218.8 356.464 1217.77 357.911 1216.99 359.419L1211.08 370.696C1210.29 372.204 1209.81 373.651 1209.69 375.038C1209.57 376.425 1209.69 377.631 1210.17 378.596C1210.66 379.621 1211.44 380.405 1212.46 381.008C1213.49 381.611 1214.82 381.853 1216.44 381.853H1261.37V381.973ZM1156.02 337.046H1211.02C1209.45 337.046 1207.82 337.347 1206.13 337.89C1204.44 338.493 1202.88 339.277 1201.31 340.302C1199.74 341.328 1198.35 342.534 1197.03 343.921C1195.7 345.308 1194.67 346.755 1193.89 348.263H1160.78C1158.43 348.263 1156.02 348.866 1153.49 350.072C1150.95 351.278 1148.72 352.966 1146.91 355.137L1143.18 359.419H1160.66C1163.2 359.419 1165.37 359.841 1167.18 360.625C1168.99 361.409 1170.49 362.495 1171.64 363.882C1172.78 365.269 1173.57 366.897 1173.93 368.766C1174.35 370.636 1174.29 372.747 1173.87 374.978L1170.37 393.13H1147.82L1150.83 377.45C1151.02 375.46 1150.53 373.772 1149.33 372.566C1148.12 371.299 1146.37 370.696 1144.08 370.696H1114.77L1103.01 393.13H1080.58L1115.8 325.769H1138.23L1120.56 359.419L1126.47 352.544C1128.4 350.253 1130.51 348.202 1132.92 346.333C1135.34 344.463 1137.81 342.775 1140.4 341.448C1142.99 340.061 1145.59 338.976 1148.24 338.192C1150.95 337.468 1153.55 337.046 1156.02 337.046ZM1066.35 381.973H1077.63L1071.72 393.25H1038.07L1058.51 354.112H1080.94L1066.35 381.973ZM1061.52 348.504C1062.31 346.936 1062.79 345.489 1062.91 344.102C1063.03 342.715 1062.91 341.508 1062.43 340.423C1061.95 339.398 1061.16 338.554 1060.08 337.95C1058.99 337.347 1057.67 337.106 1056.16 337.106H1089.81L1083.96 348.504H1061.52ZM1048.14 359.54L1042.23 370.817C1040.6 373.953 1038.49 376.847 1035.9 379.561C1033.3 382.275 1030.47 384.627 1027.33 386.677C1024.26 388.667 1021 390.295 1017.68 391.501C1014.37 392.708 1011.17 393.311 1008.04 393.311H951.953L981.502 336.744C982.286 335.297 982.708 333.91 982.768 332.583C982.828 331.257 982.648 330.111 982.165 329.146C981.683 328.181 980.899 327.397 979.874 326.794C978.848 326.191 977.522 325.95 976.014 325.95H1009.66L980.296 382.034H1002.73C1004.24 382.034 1005.86 381.732 1007.55 381.189C1009.24 380.586 1010.87 379.802 1012.44 378.777C1013.95 377.752 1015.39 376.606 1016.72 375.219C1018.05 373.832 1019.07 372.385 1019.85 370.877L1025.76 359.6C1026.55 358.092 1027.03 356.645 1027.15 355.258C1027.27 353.871 1027.09 352.665 1026.61 351.7C1026.13 350.675 1025.34 349.891 1024.26 349.288C1023.23 348.685 1021.91 348.444 1020.4 348.444H1003.51L1009.42 337.166H1037.46C1040.6 337.166 1043.19 337.77 1045.3 338.976C1047.41 340.182 1048.92 341.75 1049.89 343.8C1050.85 345.79 1051.21 348.202 1050.97 350.916C1050.61 353.509 1049.71 356.404 1048.14 359.54ZM951.35 359.6H962.627C961.059 359.6 959.431 359.902 957.742 360.444C956.054 360.987 954.486 361.831 952.918 362.856C951.35 363.882 949.963 365.088 948.636 366.475C947.31 367.862 946.284 369.309 945.501 370.817H900.574L906.364 359.66H951.35V359.6ZM886.102 381.973C885.257 383.541 884.775 385.049 884.654 386.376C884.534 387.702 884.715 388.908 885.197 389.934C885.679 390.959 886.403 391.803 887.489 392.346C888.514 392.949 889.84 393.19 891.469 393.19H824.11C820.974 393.19 818.381 392.587 816.27 391.381C814.159 390.175 812.652 388.607 811.627 386.556C810.662 384.566 810.24 382.154 810.541 379.44C810.782 376.727 811.747 373.772 813.376 370.696L819.285 359.419C820.853 356.344 822.964 353.389 825.557 350.675C828.15 347.961 830.984 345.609 834.12 343.619C837.195 341.629 840.452 340.001 843.768 338.855C847.145 337.649 850.342 337.046 853.477 337.046H887.127C890.263 337.046 892.856 337.649 894.966 338.855C897.077 340.001 898.584 341.629 899.549 343.619C900.514 345.609 900.876 347.961 900.635 350.675C900.394 353.389 899.489 356.283 897.921 359.419L892.011 370.696H841.477L847.387 359.419H875.428C876.212 357.911 876.694 356.464 876.815 355.077C876.935 353.69 876.815 352.484 876.332 351.519C875.85 350.494 875.066 349.71 873.981 349.107C872.895 348.504 871.568 348.263 870.061 348.263H858.784C857.276 348.263 855.648 348.564 853.96 349.107C852.271 349.71 850.703 350.494 849.135 351.519C847.568 352.544 846.181 353.69 844.854 355.077C843.527 356.464 842.502 357.911 841.718 359.419L835.808 370.696C835.024 372.204 834.542 373.651 834.421 375.038C834.301 376.425 834.421 377.631 834.904 378.596C835.386 379.621 836.17 380.405 837.195 381.008C838.221 381.611 839.547 381.853 841.175 381.853H886.102V381.973Z" fill="white"/>
<mask id="mask0_2087_21" style="mask-type:luminance" maskUnits="userSpaceOnUse" x="123" y="37" width="277" height="81">
<path d="M123.922 51.8626C341.316 0.000133514 322.682 110.781 399.569 102.881C239.343 157.819 242.539 44.3245 123.922 51.8626Z" fill="white"/>
</mask>
<g mask="url(#mask0_2087_21)">
<path d="M399.569 0H123.922V157.819H399.569V0Z" fill="url(#paint0_linear_2087_21)"/>
</g>
<mask id="mask1_2087_21" style="mask-type:luminance" maskUnits="userSpaceOnUse" x="123" y="37" width="277" height="69">
<path d="M123.922 51.8626C341.316 0.000125885 322.682 110.781 399.569 102.881C268.53 125.194 303.928 14.3528 123.922 51.8626Z" fill="white"/>
</mask>
<g mask="url(#mask1_2087_21)">
<path d="M399.569 0H123.922V125.194H399.569V0Z" fill="url(#paint1_linear_2087_21)"/>
</g>
<path fill-rule="evenodd" clip-rule="evenodd" d="M402.165 251.654H401.984C398.426 251.654 394.748 252.317 391.009 253.584C387.27 254.91 383.652 256.72 380.154 259.011C376.657 261.363 373.461 264.077 370.566 267.152C367.611 270.228 365.32 273.484 363.511 276.922L337.158 327.397C335.409 330.835 334.384 334.091 334.022 337.167C333.721 340.242 334.083 342.956 335.168 345.187C336.253 347.479 337.942 349.228 340.294 350.555C342.646 351.881 345.601 352.484 349.158 352.484H399.632C403.07 352.484 406.628 351.821 410.427 350.555C414.166 349.228 417.784 347.479 421.221 345.187C424.658 342.896 427.855 340.242 430.809 337.167C433.101 334.755 435.091 332.282 436.779 329.629V329.568C437.202 328.845 437.624 328.121 437.986 327.337L462.951 279.575L463.132 279.213L464.338 276.922C466.087 273.484 467.112 270.228 467.474 267.152C467.775 264.077 467.414 261.363 466.328 259.132C465.243 256.84 463.554 255.091 461.202 253.765C458.851 252.438 455.896 251.835 452.338 251.835H402.105V251.654H402.165ZM402.768 229.643H402.527C397.401 229.643 392.155 230.607 386.788 232.477C381.421 234.346 376.235 236.939 371.23 240.317C366.224 243.694 361.641 247.553 357.48 252.016C353.259 256.478 349.942 261.122 347.41 266.067L309.539 338.494C307.006 343.439 305.499 348.082 305.077 352.545C304.594 357.007 305.137 360.806 306.705 364.063C308.273 367.319 310.685 369.852 314.122 371.722C317.499 373.591 321.781 374.556 326.906 374.556H399.21C404.155 374.556 409.281 373.591 414.708 371.722C420.075 369.852 425.261 367.259 430.206 364.063C435.151 360.806 439.734 356.947 443.956 352.545C447.212 349.107 450.167 345.489 452.519 341.75L452.579 341.69V341.629C453.182 340.604 453.785 339.519 454.328 338.433L490.208 269.806L490.51 269.263L492.259 265.946C494.791 261.001 496.299 256.358 496.721 251.895C497.204 247.433 496.661 243.633 495.093 240.377C493.525 237.12 491.113 234.588 487.676 232.718C484.299 230.849 480.017 229.884 474.891 229.884H402.768V229.643Z" fill="#050102"/>
<path d="M781.775 208.234H876.15C871.868 208.234 867.406 209.018 862.762 210.646C858.119 212.275 853.656 214.506 849.315 217.28C845.033 220.114 841.053 223.431 837.435 227.23C833.816 231.09 830.801 235.13 828.45 239.352L779.423 333.488C774.84 342.172 768.93 350.313 761.693 357.912C754.457 365.51 746.497 372.083 737.813 377.752C729.13 383.36 720.205 387.883 710.918 391.2C701.691 394.517 692.706 396.205 684.022 396.205H558.651C549.968 396.205 542.671 394.517 536.821 391.2C530.972 387.883 526.69 383.421 523.917 377.752C521.143 372.144 520.117 365.51 520.841 357.912C521.504 350.313 524.158 342.172 528.741 333.488H591.396C589.225 337.77 587.899 341.81 587.537 345.609C587.115 349.469 587.597 352.786 588.924 355.56C590.25 358.394 592.361 360.565 595.316 362.193C598.271 363.822 601.949 364.606 606.352 364.606H669.007C673.288 364.606 677.751 363.761 682.394 362.193C687.038 360.565 691.5 358.334 695.842 355.56C700.124 352.725 704.104 349.409 707.722 345.609C715.802 337.106 719.18 327.819 724.607 317.628L599.477 317.869C590.793 317.869 583.496 316.18 577.647 312.864C571.798 309.547 567.516 305.084 564.742 299.416C561.968 293.807 560.943 287.174 561.667 279.575C562.33 271.977 564.983 263.835 569.566 255.152L594.231 208.113H656.886L632.222 255.152C629.99 259.614 628.724 263.655 628.362 267.454C628 271.193 628.483 274.51 629.749 277.404C631.076 280.299 633.187 282.59 636.141 284.158C639.096 285.787 642.775 286.571 647.177 286.571H740.768L781.775 208.234ZM402.465 239.412H402.224C397.762 239.412 393.239 240.196 388.595 241.824C383.952 243.452 379.429 245.684 375.148 248.578C370.866 251.473 366.886 254.85 363.208 258.71C359.589 262.569 356.635 266.61 354.464 270.891L321.719 333.548C319.548 337.83 318.221 341.87 317.859 345.67C317.437 349.529 317.92 352.846 319.246 355.62C320.573 358.454 322.684 360.625 325.639 362.254C328.593 363.882 332.272 364.666 336.674 364.666H399.329C403.611 364.666 408.073 363.822 412.717 362.254C417.36 360.625 421.883 358.394 426.164 355.62C430.446 352.786 434.426 349.469 438.044 345.67C440.879 342.654 443.411 339.579 445.401 336.322L445.462 336.262C446.004 335.357 446.487 334.453 446.969 333.548L477.965 274.208L478.206 273.726L479.714 270.891C481.885 266.61 483.212 262.569 483.573 258.77C483.996 254.91 483.513 251.594 482.186 248.819C480.86 245.985 478.749 243.814 475.794 242.186C472.839 240.558 469.161 239.774 464.759 239.774H402.465V239.412ZM518.007 208.234C517.404 208.234 516.74 208.234 516.137 208.294C523.313 208.716 529.404 210.345 534.47 213.179C540.319 216.496 544.601 220.958 547.375 226.627C550.149 232.236 551.174 238.869 550.45 246.468C549.787 254.066 547.133 262.207 542.55 270.891L541.043 273.726L509.806 333.548C505.283 342.232 499.313 350.374 492.076 357.972C488.579 361.651 484.9 365.088 481.041 368.284L480.679 368.586C476.699 371.902 472.598 374.978 468.256 377.873C459.633 383.602 450.708 388.064 441.361 391.321C436.838 392.889 432.376 394.095 428.034 394.879L427.612 394.939L427.19 394.999C422.848 395.783 418.566 396.145 414.345 396.145H289.034C280.351 396.145 273.054 394.457 267.204 391.14C261.355 387.823 257.073 383.36 254.299 377.692C251.525 372.083 250.5 365.45 251.224 357.851C251.887 350.253 254.541 342.112 259.124 333.428L291.869 270.771C296.452 262.087 302.361 253.945 309.598 246.347C316.834 238.748 324.794 232.115 333.357 226.386C341.981 220.657 350.906 216.194 360.253 212.938C369.54 209.681 378.585 208.053 387.269 208.053H402.465V207.993H512.579C513.243 207.993 513.906 207.993 514.57 208.053H518.007V208.234ZM175.422 333.548L273.958 139.305H336.614L238.078 333.548C233.615 342.293 227.585 350.374 220.349 357.972C213.112 365.57 205.152 372.144 196.468 377.812C187.785 383.421 178.86 387.944 169.573 391.26C160.346 394.577 151.361 396.266 142.678 396.266H48.7849C40.1012 396.266 32.8045 394.577 26.955 391.26C21.1056 387.944 16.824 383.481 14.0501 377.812C11.2761 372.204 10.2509 365.57 10.9746 357.972C11.6379 350.374 14.2913 342.232 18.8743 333.548L35.1563 302.069H97.8117L81.5297 333.548C79.1779 337.83 77.8512 341.87 77.5497 345.67C77.2482 349.529 77.7306 352.846 79.1176 355.62C80.4443 358.454 82.5549 360.625 85.5098 362.254C88.4646 363.882 92.1432 364.666 96.5453 364.666H127.783C132.064 364.666 136.527 363.822 141.291 362.254C146.055 360.625 150.577 358.394 154.859 355.62C159.14 352.786 163.12 349.469 166.739 345.67C170.297 341.87 173.191 337.83 175.422 333.548Z" fill="#9D9FA1"/>
</g>
<defs>
<linearGradient id="paint0_linear_2087_21" x1="167.518" y1="55.6195" x2="296.569" y2="87.5193" gradientUnits="userSpaceOnUse">
<stop stop-color="#A6C83B"/>
<stop offset="0.3129" stop-color="#659D41"/>
<stop offset="0.6092" stop-color="#308040"/>
<stop offset="0.8481" stop-color="#00703E"/>
<stop offset="1" stop-color="#006B3D"/>
</linearGradient>
<linearGradient id="paint1_linear_2087_21" x1="266.962" y1="90.8661" x2="260.509" y2="55.8288" gradientUnits="userSpaceOnUse">
<stop stop-color="#A6C83B"/>
<stop offset="0.3682" stop-color="#81B13C"/>
<stop offset="0.7538" stop-color="#619F3B"/>
<stop offset="1" stop-color="#56993B"/>
</linearGradient>
<clipPath id="clip0_2087_21">
<rect width="1335" height="407" fill="white"/>
</clipPath>
</defs>
</svg>
